<svg width="19" height="21" viewBox="0 0 19 21" fill="none" xmlns="http://www.w3.org/2000/svg">
<path fill-rule="evenodd" clip-rule="evenodd" d="M9.50003 0.25C9.83984 0.25 10.1657 0.384989 10.406 0.62527C10.6463 0.865551 10.7813 1.19144 10.7813 1.53125V16.3758L16.2804 10.8741C16.3995 10.755 16.541 10.6605 16.6966 10.596C16.8522 10.5316 17.0191 10.4984 17.1875 10.4984C17.356 10.4984 17.5228 10.5316 17.6785 10.596C17.8341 10.6605 17.9755 10.755 18.0947 10.8741C18.2138 10.9932 18.3083 11.1347 18.3727 11.2903C18.4372 11.446 18.4704 11.6128 18.4704 11.7812C18.4704 11.9497 18.4372 12.1165 18.3727 12.2722C18.3083 12.4278 18.2138 12.5693 18.0947 12.6884L10.4072 20.3759C10.2881 20.4952 10.1468 20.5899 9.99109 20.6544C9.83543 20.719 9.66856 20.7523 9.50003 20.7523C9.3315 20.7523 9.16463 20.719 9.00897 20.6544C8.85331 20.5899 8.71192 20.4952 8.59291 20.3759L0.905407 12.6884C0.786281 12.5693 0.691786 12.4278 0.627316 12.2722C0.562846 12.1165 0.529663 11.9497 0.529663 11.7812C0.529663 11.6128 0.562846 11.446 0.627316 11.2903C0.691786 11.1347 0.786281 10.9932 0.905407 10.8741C1.14599 10.6335 1.47229 10.4984 1.81253 10.4984C1.981 10.4984 2.14782 10.5316 2.30347 10.596C2.45911 10.6605 2.60053 10.755 2.71966 10.8741L8.21878 16.3758V1.53125C8.21878 1.19144 8.35377 0.865551 8.59405 0.62527C8.83433 0.384989 9.16022 0.25 9.50003 0.25Z" fill="white"/>
</svg>
