<svg width="12" height="12" fill="none" xmlns="http://www.w3.org/2000/svg"><g clip-path="url(#a)"><path d="M4.014 9.258c0 .044-.056.078-.126.078-.08.007-.136-.028-.136-.078 0-.044.056-.079.126-.079.073-.006.136.029.136.079zM3.26 9.16c-.017.043.032.094.104.107.063.021.136 0 .15-.044.015-.044-.031-.094-.104-.113-.063-.016-.133.006-.15.05zm1.07-.037c-.07.015-.119.056-.112.107.008.043.07.072.143.056.07-.015.119-.056.111-.1-.007-.041-.072-.07-.142-.063zM5.923.767C2.567.767 0 3.063 0 6.087c0 2.419 1.689 4.488 4.1 5.216.31.05.42-.122.42-.264 0-.135-.008-.88-.008-1.338 0 0-1.693.327-2.05-.65 0 0-.275-.635-.672-.798 0 0-.554-.343.039-.336 0 0 .602.044.934.563.53.841 1.418.6 1.764.455.055-.349.213-.59.387-.735-1.353-.135-2.717-.311-2.717-2.409 0-.6.184-.9.57-1.284-.062-.142-.268-.726.064-1.48.505-.142 1.669.588 1.669.588a6.27 6.27 0 0 1 1.52-.185 6.27 6.27 0 0 1 1.519.185s1.163-.733 1.67-.589c.33.757.125 1.339.062 1.48.387.387.624.688.624 1.285 0 2.104-1.425 2.272-2.777 2.41.222.172.411.499.411 1.011 0 .735-.007 1.644-.007 1.823 0 .142.111.314.418.264C10.36 10.575 12 8.506 12 6.088 12 3.063 9.278.768 5.923.768zm-3.571 7.52c-.032.022-.025.073.017.114.038.035.094.05.125.022.032-.022.025-.072-.017-.114-.038-.034-.094-.05-.125-.021zm-.262-.176c-.017.028.008.063.056.085.039.022.087.015.104-.015.017-.029-.007-.063-.056-.085-.048-.013-.087-.007-.104.015zm.784.776c-.039.029-.024.094.032.135.055.05.125.057.157.022.031-.028.017-.094-.032-.135-.053-.05-.125-.057-.157-.022zm-.276-.32c-.038.022-.038.078 0 .128.04.05.104.072.136.05.039-.028.039-.085 0-.135-.034-.05-.097-.072-.136-.043z" fill="#515152"/></g><defs><clipPath id="a"><path fill="#fff" transform="translate(0 .593)" d="M0 0h12v11.164H0z"/></clipPath></defs></svg>