<svg width="12" height="12" viewBox="0 0 12 12" fill="none" xmlns="http://www.w3.org/2000/svg">
<g clip-path="url(#clip0_19_102)">
<path d="M4.01371 9.25791C4.01371 9.30152 3.95806 9.3364 3.8879 9.3364C3.80806 9.34294 3.75242 9.30806 3.75242 9.25791C3.75242 9.2143 3.80806 9.17941 3.87823 9.17941C3.95081 9.17287 4.01371 9.20776 4.01371 9.25791ZM3.26129 9.15979C3.24435 9.2034 3.29274 9.25354 3.36532 9.26663C3.42823 9.28843 3.50081 9.26663 3.51532 9.22302C3.52984 9.17941 3.48387 9.12926 3.41129 9.10964C3.34839 9.09437 3.27823 9.11618 3.26129 9.15979ZM4.33065 9.12272C4.26048 9.13798 4.2121 9.17941 4.21935 9.22956C4.22661 9.27317 4.28952 9.30152 4.3621 9.28625C4.43226 9.27099 4.48064 9.22956 4.47339 9.18595C4.46613 9.14452 4.40081 9.11618 4.33065 9.12272ZM5.92258 0.767334C2.56694 0.767334 0 3.06332 0 6.08757C0 8.50566 1.68871 10.5749 4.10081 11.3031C4.41048 11.3533 4.51935 11.181 4.51935 11.0393C4.51935 10.9041 4.5121 10.1584 4.5121 9.70053C4.5121 9.70053 2.81855 10.0276 2.4629 9.05077C2.4629 9.05077 2.1871 8.41626 1.79032 8.25273C1.79032 8.25273 1.23629 7.9104 1.82903 7.91695C1.82903 7.91695 2.43145 7.96055 2.7629 8.4795C3.29274 9.32114 4.18064 9.07911 4.52661 8.9352C4.58226 8.58634 4.73952 8.34431 4.91371 8.2004C3.56129 8.06521 2.19677 7.8886 2.19677 5.79103C2.19677 5.19141 2.38065 4.89052 2.76774 4.50676C2.70484 4.36503 2.49919 3.78068 2.83065 3.02625C3.33629 2.88453 4.5 3.61497 4.5 3.61497C4.98387 3.49286 5.50403 3.42963 6.01935 3.42963C6.53468 3.42963 7.05484 3.49286 7.53871 3.61497C7.53871 3.61497 8.70242 2.88235 9.20806 3.02625C9.53952 3.78286 9.33387 4.36503 9.27097 4.50676C9.65806 4.8927 9.89516 5.1936 9.89516 5.79103C9.89516 7.89514 8.47016 8.06303 7.11774 8.2004C7.34032 8.37265 7.52903 8.69972 7.52903 9.21212C7.52903 9.94692 7.52177 10.8562 7.52177 11.035C7.52177 11.1767 7.63306 11.3489 7.94032 11.2988C10.3597 10.5749 12 8.50566 12 6.08757C12 3.06332 9.27823 0.767334 5.92258 0.767334ZM2.35161 8.28762C2.32016 8.30942 2.32742 8.35957 2.36855 8.401C2.40726 8.43589 2.4629 8.45115 2.49435 8.4228C2.52581 8.401 2.51855 8.35085 2.47742 8.30942C2.43871 8.27454 2.38306 8.25927 2.35161 8.28762ZM2.09032 8.111C2.07339 8.13935 2.09758 8.17424 2.14597 8.19604C2.18468 8.21784 2.23306 8.2113 2.25 8.18078C2.26694 8.15243 2.24274 8.11754 2.19435 8.09574C2.14597 8.08266 2.10726 8.0892 2.09032 8.111ZM2.87419 8.88723C2.83548 8.91558 2.85 8.98099 2.90565 9.02242C2.96129 9.07257 3.03145 9.07911 3.0629 9.04422C3.09435 9.01588 3.07984 8.95047 3.03145 8.90904C2.97823 8.85889 2.90565 8.85235 2.87419 8.88723ZM2.59839 8.56671C2.55968 8.58852 2.55968 8.64521 2.59839 8.69536C2.6371 8.74551 2.70242 8.76731 2.73387 8.74551C2.77258 8.71716 2.77258 8.66047 2.73387 8.61032C2.7 8.56017 2.6371 8.53837 2.59839 8.56671Z" fill="#515152"/>
</g>
<defs>
<clipPath id="clip0_19_102">
<rect width="12" height="11.1638" fill="white" transform="translate(0 0.593018)"/>
</clipPath>
</defs>
</svg>
