<svg width="12" height="12" fill="none" xmlns="http://www.w3.org/2000/svg"><path d="M6 4.846c-.283 0-.559.078-.794.224a1.355 1.355 0 0 0-.526.597c-.108.242-.136.51-.08.768.054.257.19.494.39.68.2.186.455.312.732.364.277.05.564.024.825-.076s.485-.271.642-.49c.157-.218.24-.475.24-.738 0-.353-.15-.69-.419-.94A1.486 1.486 0 0 0 6 4.845zm3.34-1.022a1.342 1.342 0 0 0-.322-.458 1.46 1.46 0 0 0-.492-.3c-.563-.206-1.902-.16-2.526-.16-.624 0-1.962-.048-2.526.16a1.46 1.46 0 0 0-.492.3c-.14.13-.25.287-.323.458-.221.523-.172 1.77-.172 2.35 0 .58-.05 1.826.173 2.352.073.171.183.327.323.457s.308.233.492.3c.562.207 1.902.16 2.526.16.624 0 1.962.049 2.526-.16a1.46 1.46 0 0 0 .492-.3c.14-.13.25-.286.323-.457.223-.524.172-1.771.172-2.351 0-.58.051-1.826-.172-2.35l-.002-.001zM6 8.218c-.434 0-.86-.12-1.22-.344a2.083 2.083 0 0 1-.81-.917 1.911 1.911 0 0 1-.124-1.18c.085-.397.294-.761.6-1.047.308-.286.7-.48 1.126-.56a2.35 2.35 0 0 1 1.269.117c.4.155.744.417.985.753a1.918 1.918 0 0 1 .204 1.918c-.11.247-.272.473-.476.663-.204.19-.446.34-.713.442A2.337 2.337 0 0 1 6 8.218zm2.287-3.695a.54.54 0 0 1-.285-.08.486.486 0 0 1-.189-.214.446.446 0 0 1-.03-.276.468.468 0 0 1 .141-.244.549.549 0 0 1 .559-.103.507.507 0 0 1 .23.175.454.454 0 0 1-.063.603.516.516 0 0 1-.362.14l-.001-.001zm2.427-3.93H1.286c-.341 0-.668.126-.91.35A1.155 1.155 0 0 0 0 1.79v8.772c0 .317.135.621.377.845.24.225.568.35.909.35h9.428c.341 0 .668-.125.91-.35.24-.224.376-.528.376-.845V1.789c0-.317-.136-.621-.377-.846a1.336 1.336 0 0 0-.909-.35zm-.458 7.227c-.035.638-.191 1.204-.693 1.67-.5.464-1.109.613-1.794.643-.708.037-2.829.037-3.536 0-.687-.032-1.293-.178-1.795-.644s-.66-1.032-.692-1.67c-.04-.658-.04-2.631 0-3.289.034-.638.19-1.204.692-1.67.503-.464 1.111-.611 1.795-.642a56.129 56.129 0 0 1 3.536 0c.686.032 1.294.178 1.794.644s.66 1.033.693 1.671c.04.656.04 2.628 0 3.287z" fill="#515152"/></svg>