<svg width="12" height="12" fill="none" xmlns="http://www.w3.org/2000/svg"><g clip-path="url(#a)"><path d="M2.353.596C1.06.596.003 1.58.003 2.783v6.785c0 1.203 1.057 2.187 2.35 2.187h7.294c1.293 0 2.35-.984 2.35-2.187V2.783c0-1.203-1.057-2.187-2.35-2.187H2.353zm.591 1.841c.62 0 1.002.379 1.013.876 0 .487-.393.876-1.025.876H2.92c-.608 0-1-.39-1-.876 0-.497.404-.876 1.024-.876zm5.34 2.326c1.193 0 2.086.725 2.086 2.282v2.908H8.56V7.24c0-.682-.262-1.147-.918-1.147-.5 0-.798.314-.93.617-.047.108-.06.26-.06.41v2.833h-1.81s.023-4.595 0-5.071h1.811V5.6c.241-.346.672-.837 1.633-.837zm-6.258.12h1.812v5.07H2.026v-5.07z" fill="#515152"/></g><defs><clipPath id="a"><path fill="#fff" transform="translate(0 .593)" d="M0 0h12v11.164H0z"/></clipPath></defs></svg>