<svg width="384" height="448" viewBox="0 0 384 448" fill="none" xmlns="http://www.w3.org/2000/svg">
<path d="M361 183C375.3 191.8 384 207.3 384 224C384 240.7 375.3 256.2 361 264.1L73.03 440.1C58.21 450 39.66 450.4 24.52 441.9C17.0789 437.724 10.8848 431.641 6.5751 424.277C2.26544 416.912 -0.00410776 408.533 5.58134e-06 400V48C0.00122174 39.4723 2.27329 31.0989 6.58268 23.7402C10.8921 16.3816 17.0833 10.3032 24.52 6.12997C31.9584 1.96085 40.3728 -0.152337 48.8984 0.00759431C57.424 0.167526 65.7532 2.59481 73.03 7.03997L361 183Z" fill="white"/>
</svg>
