<svg width="45" height="60" fill="none" xmlns="http://www.w3.org/2000/svg"><path d="M26.54.818h12.159v40.568c0 3.75-.843 7.008-2.529 9.773-1.666 2.765-3.986 4.896-6.96 6.392-2.973 1.496-6.43 2.244-10.37 2.244-3.503 0-6.685-.615-9.545-1.846-2.84-1.25-5.094-3.144-6.76-5.682C.866 49.71.043 46.5.061 42.637h12.245c.038 1.533.35 2.85.937 3.948.606 1.08 1.43 1.913 2.472 2.5 1.06.568 2.31.852 3.75.852 1.515 0 2.793-.322 3.835-.965 1.06-.663 1.866-1.63 2.415-2.898.55-1.27.824-2.832.824-4.688V.818z" fill="#13AB1E"/><path d="M32.352.818h12.16v40.568c0 3.75-.843 7.008-2.529 9.773-1.667 2.765-3.987 4.896-6.96 6.392-2.974 1.496-6.43 2.244-10.37 2.244-3.503 0-6.685-.615-9.545-1.846-2.841-1.25-5.095-3.144-6.761-5.682-1.667-2.557-2.49-5.767-2.472-9.63h12.244c.038 1.533.35 2.85.938 3.948.606 1.08 1.43 1.913 2.471 2.5 1.061.568 2.311.852 3.75.852 1.516 0 2.794-.322 3.836-.965 1.06-.663 1.865-1.63 2.414-2.898.55-1.27.824-2.832.824-4.688V.818z" fill="#AB134D"/></svg>