<svg width="48" height="63" fill="none" xmlns="http://www.w3.org/2000/svg"><path d="M35.408 19.945c-.227-2.291-1.202-4.072-2.926-5.34-1.723-1.27-4.062-1.904-7.017-1.904-2.007 0-3.703.284-5.085.852-1.383.55-2.443 1.317-3.182 2.301-.72.985-1.08 2.103-1.08 3.353-.037 1.041.18 1.95.654 2.727.492.776 1.165 1.449 2.017 2.017.852.55 1.837 1.032 2.955 1.449 1.117.398 2.31.739 3.58 1.023l5.226 1.25c2.538.568 4.868 1.325 6.99 2.272 2.12.947 3.957 2.112 5.51 3.495a14.523 14.523 0 0 1 3.608 4.886c.872 1.875 1.317 4.025 1.336 6.449-.02 3.56-.928 6.648-2.728 9.261-1.78 2.595-4.356 4.612-7.727 6.051-3.352 1.42-7.396 2.131-12.13 2.131-4.698 0-8.788-.72-12.273-2.159-3.466-1.44-6.175-3.57-8.125-6.392-1.932-2.841-2.945-6.354-3.04-10.54h11.903c.133 1.95.692 3.58 1.676 4.886 1.004 1.288 2.34 2.264 4.006 2.927 1.686.644 3.59.966 5.71.966 2.084 0 3.892-.303 5.427-.91 1.552-.606 2.755-1.448 3.607-2.528.853-1.08 1.279-2.32 1.279-3.722 0-1.306-.388-2.405-1.165-3.295-.758-.89-1.875-1.648-3.352-2.273-1.459-.625-3.248-1.193-5.37-1.704l-6.335-1.591c-4.905-1.193-8.778-3.059-11.62-5.597-2.84-2.538-4.251-5.956-4.232-10.255-.019-3.523.919-6.6 2.812-9.233 1.913-2.633 4.537-4.688 7.87-6.165 3.333-1.477 7.121-2.216 11.363-2.216 4.319 0 8.088.739 11.307 2.216 3.239 1.477 5.758 3.532 7.557 6.165 1.8 2.632 2.727 5.682 2.784 9.147h-11.79z" fill="#13AB1E"/><path d="M28.352 1.146h12.16v40.568c0 3.75-.843 7.008-2.529 9.773-1.667 2.765-3.987 4.895-6.96 6.392-2.974 1.496-6.43 2.244-10.37 2.244-3.503 0-6.685-.615-9.545-1.847-2.841-1.25-5.095-3.144-6.761-5.681-1.667-2.557-2.49-5.767-2.472-9.631h12.244c.038 1.534.35 2.85.938 3.949.606 1.08 1.43 1.913 2.471 2.5 1.061.568 2.311.852 3.75.852 1.516 0 2.794-.322 3.836-.966 1.06-.663 1.865-1.629 2.414-2.898.55-1.269.824-2.831.824-4.687V1.146z" fill="#AB134D"/></svg>