<svg width="57" height="76" fill="none" xmlns="http://www.w3.org/2000/svg"><path d="M4.311 66.273h1.824v6.085c0 .563-.126 1.051-.379 1.466-.25.415-.598.734-1.044.959-.446.224-.964.336-1.555.336a3.584 3.584 0 0 1-1.432-.277A2.289 2.289 0 0 1 .71 73.99c-.25-.383-.374-.865-.371-1.444h1.836c.006.23.053.427.141.592a.96.96 0 0 0 .37.375c.16.085.347.128.563.128.228 0 .42-.049.576-.145.159-.1.28-.245.362-.435a1.77 1.77 0 0 0 .123-.703v-6.085z" fill="#AB134D"/><path d="M10.584 75.128c-.662 0-1.234-.14-1.717-.422a2.887 2.887 0 0 1-1.112-1.185c-.262-.508-.392-1.098-.392-1.768 0-.676.13-1.267.392-1.773a2.852 2.852 0 0 1 1.112-1.184c.483-.285 1.055-.427 1.717-.427.662 0 1.233.142 1.713.427.483.28.855.676 1.117 1.184.261.506.392 1.097.392 1.773 0 .67-.13 1.26-.392 1.768-.262.506-.634.9-1.117 1.185-.48.281-1.05.422-1.713.422zm.009-1.406c.3 0 .552-.086.754-.256.202-.173.354-.41.456-.707.105-.299.158-.638.158-1.019 0-.38-.053-.72-.158-1.018a1.585 1.585 0 0 0-.456-.708 1.117 1.117 0 0 0-.754-.26c-.304 0-.56.087-.767.26-.205.174-.36.41-.465.708a3.132 3.132 0 0 0-.153 1.018c0 .38.05.72.153 1.019.105.298.26.534.465.707.207.17.463.256.767.256zm7.376 1.406c-.673 0-1.253-.136-1.739-.41a2.802 2.802 0 0 1-1.116-1.167c-.261-.505-.392-1.104-.392-1.794 0-.673.13-1.264.392-1.773.261-.508.63-.904 1.104-1.188.477-.285 1.037-.427 1.679-.427.431 0 .834.07 1.206.21.375.136.701.342.98.617.281.276.5.622.656 1.04.156.415.234.9.234 1.457v.499h-5.527v-1.125h3.819a1.39 1.39 0 0 0-.17-.695 1.221 1.221 0 0 0-.474-.473 1.35 1.35 0 0 0-.694-.175c-.276 0-.52.064-.733.192-.21.125-.375.294-.495.507-.12.21-.18.445-.183.703v1.07c0 .324.06.604.179.84.122.235.294.417.516.545.221.128.484.192.788.192.202 0 .386-.029.554-.085a1.111 1.111 0 0 0 .703-.673l1.679.11c-.085.403-.26.756-.524 1.057-.262.298-.6.531-1.014.699-.412.165-.888.247-1.428.247zm6.004-8.855V75h-1.815v-8.727h1.815zm15.078 8.855c-.673 0-1.253-.136-1.739-.41a2.802 2.802 0 0 1-1.116-1.167c-.261-.505-.392-1.104-.392-1.794 0-.673.13-1.264.392-1.773.261-.508.63-.904 1.104-1.188.477-.285 1.037-.427 1.679-.427.431 0 .834.07 1.206.21.375.136.701.342.98.617.281.276.5.622.656 1.04.156.415.234.9.234 1.457v.499h-5.527v-1.125h3.819a1.39 1.39 0 0 0-.17-.695 1.221 1.221 0 0 0-.474-.473 1.35 1.35 0 0 0-.695-.175c-.275 0-.52.064-.732.192-.21.125-.375.294-.495.507-.12.21-.18.445-.183.703v1.07c0 .324.06.604.179.84.122.235.294.417.516.545.221.128.484.192.788.192.202 0 .386-.029.554-.085a1.11 1.11 0 0 0 .703-.673l1.679.11c-.085.403-.26.756-.524 1.057-.262.298-.6.531-1.014.699-.412.165-.888.247-1.428.247zm6.004-3.912V75H43.24v-6.546h1.73v1.155h.077c.145-.38.388-.681.729-.903.34-.225.754-.337 1.24-.337.454 0 .85.1 1.189.299.338.198.6.483.788.852.187.366.281.804.281 1.312V75H47.46v-3.844c.003-.4-.1-.713-.307-.937-.207-.227-.493-.341-.857-.341-.244 0-.46.052-.647.157-.185.106-.33.259-.435.46a1.594 1.594 0 0 0-.158.72zm7.516 3.908c-.417 0-.79-.073-1.116-.218a1.798 1.798 0 0 1-.776-.652c-.187-.29-.28-.65-.28-1.082 0-.364.066-.67.2-.916.133-.248.315-.446.545-.597.23-.15.491-.264.784-.34.295-.078.605-.132.929-.163.38-.04.687-.077.92-.11.233-.038.402-.092.507-.163a.356.356 0 0 0 .158-.315v-.025c0-.27-.085-.48-.256-.627-.167-.147-.406-.221-.715-.221-.327 0-.587.072-.78.217a1 1 0 0 0-.384.537l-1.679-.136c.085-.398.253-.742.503-1.032.25-.292.572-.517.967-.673.398-.16.858-.239 1.381-.239.364 0 .712.043 1.044.128.335.085.632.218.89.397.262.178.468.409.619.69.15.278.226.612.226 1.001V75h-1.722v-.908h-.051a1.846 1.846 0 0 1-.422.541 1.952 1.952 0 0 1-.635.363 2.623 2.623 0 0 1-.857.128zm.52-1.253c.267 0 .503-.053.708-.158.204-.108.365-.253.481-.435a1.12 1.12 0 0 0 .175-.618v-.694a.974.974 0 0 1-.234.102 4.245 4.245 0 0 1-.329.081c-.122.023-.244.044-.366.064a99.05 99.05 0 0 0-.333.047c-.212.031-.399.08-.558.15a.892.892 0 0 0-.37.276.675.675 0 0 0-.133.426c0 .247.09.436.269.567.182.128.412.192.69.192z" fill="#fff"/><path d="M32.973 68.783a1.078 1.078 0 0 0-.439-.802c-.258-.19-.609-.285-1.052-.285-.301 0-.555.043-.763.128a1.073 1.073 0 0 0-.477.345.831.831 0 0 0-.162.503.718.718 0 0 0 .098.409c.074.116.175.217.302.302.128.083.276.155.444.218.167.06.346.11.537.153l.784.188c.38.085.73.199 1.048.34.318.143.594.317.827.525.233.207.413.451.54.733.132.281.198.603.201.967-.003.534-.14.997-.409 1.39-.267.388-.653.691-1.159.907-.503.213-1.11.32-1.82.32-.704 0-1.318-.108-1.84-.324-.52-.216-.927-.536-1.22-.96-.29-.425-.441-.952-.455-1.58h1.785c.02.293.104.537.252.733.15.193.35.34.6.439.253.096.539.145.857.145.313 0 .584-.046.814-.137.233-.09.413-.217.541-.379a.876.876 0 0 0 .192-.558.725.725 0 0 0-.175-.495 1.325 1.325 0 0 0-.503-.34 5.12 5.12 0 0 0-.805-.256l-.95-.239c-.736-.179-1.317-.459-1.743-.84-.426-.38-.638-.893-.635-1.537-.003-.529.138-.99.422-1.386.287-.394.68-.703 1.18-.924.5-.222 1.068-.333 1.705-.333.647 0 1.213.111 1.696.333.485.221.863.53 1.133.924.27.395.41.853.418 1.373h-1.769zM38.408 19.618c-.227-2.292-1.202-4.072-2.926-5.341-1.723-1.269-4.062-1.903-7.017-1.903-2.007 0-3.703.284-5.085.852-1.383.549-2.443 1.316-3.182 2.3-.72.986-1.08 2.103-1.08 3.353-.037 1.042.18 1.95.654 2.727.492.777 1.165 1.45 2.017 2.017.852.55 1.837 1.033 2.955 1.45 1.117.397 2.31.738 3.58 1.022l5.226 1.25c2.538.568 4.868 1.326 6.99 2.273 2.12.947 3.957 2.112 5.51 3.494a14.523 14.523 0 0 1 3.608 4.886c.872 1.876 1.317 4.025 1.336 6.45-.02 3.56-.928 6.647-2.728 9.26-1.78 2.595-4.356 4.613-7.727 6.052-3.352 1.42-7.396 2.13-12.13 2.13-4.698 0-8.788-.72-12.273-2.159-3.466-1.439-6.175-3.57-8.125-6.392-1.932-2.84-2.945-6.354-3.04-10.54h11.903c.133 1.951.692 3.58 1.676 4.887 1.004 1.288 2.34 2.263 4.006 2.926 1.686.644 3.59.966 5.71.966 2.084 0 3.892-.303 5.427-.909 1.553-.606 2.755-1.449 3.607-2.528.853-1.08 1.279-2.32 1.279-3.722 0-1.307-.388-2.405-1.165-3.295-.758-.89-1.875-1.648-3.352-2.273-1.459-.625-3.248-1.193-5.37-1.705l-6.335-1.59c-4.905-1.194-8.778-3.06-11.62-5.597-2.84-2.538-4.251-5.957-4.232-10.256-.019-3.523.919-6.6 2.812-9.233 1.913-2.632 4.537-4.687 7.87-6.165C20.52 2.828 24.308 2.09 28.55 2.09c4.319 0 8.088.739 11.307 2.216 3.239 1.478 5.758 3.533 7.557 6.165 1.8 2.633 2.727 5.682 2.784 9.148h-11.79z" fill="#13AB1E"/><path d="M31.352.818h12.16v40.568c0 3.75-.843 7.008-2.529 9.773-1.667 2.765-3.987 4.896-6.96 6.392-2.974 1.496-6.43 2.244-10.37 2.244-3.503 0-6.685-.615-9.545-1.846-2.841-1.25-5.095-3.144-6.761-5.682-1.667-2.557-2.49-5.767-2.472-9.63h12.244c.038 1.533.35 2.85.938 3.948.606 1.08 1.43 1.913 2.471 2.5 1.061.568 2.311.852 3.75.852 1.516 0 2.794-.322 3.836-.965 1.06-.663 1.865-1.63 2.414-2.898.55-1.27.824-2.832.824-4.688V.818z" fill="#AB134D"/></svg>